/* XPM */
static char * key_minimap_xpm[] = {
"24 24 127 2",
"  	c #000000",
". 	c #261C09",
"+ 	c #241503",
"@ 	c #2B1B06",
"# 	c #2E1E09",
"$ 	c #462E0E",
"% 	c #463012",
"& 	c #1E1407",
"* 	c #271E0B",
"= 	c #59441A",
"- 	c #4F3511",
"; 	c #5F4318",
"> 	c #69491B",
", 	c #6F4D21",
"' 	c #694C25",
") 	c #422B0E",
"! 	c #31260D",
"~ 	c #665020",
"{ 	c #60471A",
"] 	c #583B14",
"^ 	c #6A471C",
"/ 	c #4F3618",
"( 	c #6B4F2A",
"_ 	c #6B4E2B",
": 	c #2E1F0E",
"< 	c #413211",
"[ 	c #594218",
"} 	c #624013",
"| 	c #674112",
"1 	c #502F0C",
"2 	c #4E361D",
"3 	c #6B4E2E",
"4 	c #36230E",
"5 	c #0F0A02",
"6 	c #664D1B",
"7 	c #75531C",
"8 	c #754D16",
"9 	c #654011",
"0 	c #5D3B15",
"a 	c #5B3D1C",
"b 	c #4A300F",
"c 	c #070301",
"d 	c #1D1504",
"e 	c #6D541E",
"f 	c #6F521D",
"g 	c #372307",
"h 	c #5C3C0F",
"i 	c #734B15",
"j 	c #51350E",
"k 	c #442B0C",
"l 	c #331E05",
"m 	c #463410",
"n 	c #71551E",
"o 	c #523A13",
"p 	c #4B3512",
"q 	c #714D1A",
"r 	c #6D4E1A",
"s 	c #684816",
"t 	c #563A0F",
"u 	c #251804",
"v 	c #221A08",
"w 	c #59451A",
"x 	c #6D5321",
"y 	c #83662B",
"z 	c #715623",
"A 	c #423110",
"B 	c #624D1A",
"C 	c #795F22",
"D 	c #795C1F",
"E 	c #73571B",
"F 	c #49360D",
"G 	c #211909",
"H 	c #4B3B17",
"I 	c #4D3C17",
"J 	c #33270C",
"K 	c #3F320F",
"L 	c #65531F",
"M 	c #7C6625",
"N 	c #816421",
"O 	c #654C16",
"P 	c #2D2005",
"Q 	c #1C1604",
"R 	c #5C4E1D",
"S 	c #7F6B29",
"T 	c #836926",
"U 	c #785B1D",
"V 	c #4F3A0F",
"W 	c #030100",
"X 	c #3F3511",
"Y 	c #685922",
"Z 	c #6F5A20",
"` 	c #7B5E1F",
" .	c #634512",
"..	c #2F1B03",
"+.	c #433812",
"@.	c #6A561F",
"#.	c #6F4C15",
"$.	c #6D440C",
"%.	c #4B2D05",
"&.	c #0F0601",
"*.	c #2A1E06",
"=.	c #5D3D10",
"-.	c #7E5112",
";.	c #794B0C",
">.	c #633F0F",
",.	c #402C10",
"'.	c #3A2506",
").	c #805314",
"!.	c #8B5713",
"~.	c #8A5C21",
"{.	c #78582A",
"].	c #3A2A14",
"^.	c #554016",
"/.	c #805A1D",
"(.	c #8E5E1D",
"_.	c #845920",
":.	c #4D3719",
"<.	c #261B0E",
"[.	c #31240A",
"}.	c #6D541F",
"|.	c #8A6A2B",
"1.	c #7E622D",
"2.	c #44361B",
"3.	c #070401",
"4.	c #53431A",
"5.	c #5C4C21",
"6.	c #0F0B05",
"                                                ",
"                                                ",
"                                                ",
"    . + @ # $ % &                               ",
"  * = - ; > , ' )                               ",
"  ! ~ { ] ^ / ( _ :                             ",
"    < [ } | 1 2 3 4                             ",
"    5 6 7 8 9 0 a b c                           ",
"    d e f g h i j k l                           ",
"      m n o p q r f s t u                       ",
"      v w x y z A B C D E F                     ",
"        G H I J     K L M N O P                 ",
"                      Q R S T U V W             ",
"                          X Y Z `  ...          ",
"                              +.@.#.$.%.&.      ",
"                                *.=.-.;.>.,.    ",
"                                  '.).!.~.{.].  ",
"                                  ^./.(._.:.<.  ",
"                                  [.}.|.1.2.    ",
"                                    3.4.5.6.    ",
"                                                ",
"                                                ",
"                                                ",
"                                                "};
