/* XPM */
static char * mini_key_xpm[] = {
"57 20 423 2",
"  	c #000000",
". 	c #010000",
"+ 	c #030100",
"@ 	c #050200",
"# 	c #040200",
"$ 	c #010100",
"% 	c #2A1904",
"& 	c #61441B",
"* 	c #755424",
"= 	c #523511",
"- 	c #3E2104",
"; 	c #321A03",
"> 	c #170A01",
", 	c #110D08",
"' 	c #422A0E",
") 	c #8A6124",
"! 	c #A8772D",
"~ 	c #A87A33",
"{ 	c #936D39",
"] 	c #80561C",
"^ 	c #7F551C",
"/ 	c #614019",
"( 	c #3B2B16",
"_ 	c #060301",
": 	c #332717",
"< 	c #63411A",
"[ 	c #96611E",
"} 	c #83581B",
"| 	c #5E4015",
"1 	c #9A7B52",
"2 	c #A77E47",
"3 	c #9C7031",
"4 	c #916E41",
"5 	c #7C5E38",
"6 	c #3C260E",
"7 	c #040201",
"8 	c #563F15",
"9 	c #664414",
"0 	c #5A340D",
"a 	c #1C1004",
"b 	c #060402",
"c 	c #484135",
"d 	c #4A4032",
"e 	c #40311D",
"f 	c #7F6749",
"g 	c #7C552C",
"h 	c #5A3810",
"i 	c #130801",
"j 	c #2A2011",
"k 	c #9A7733",
"l 	c #916B27",
"m 	c #705230",
"n 	c #433627",
"o 	c #020101",
"p 	c #3B3226",
"q 	c #8E7457",
"r 	c #6A4417",
"s 	c #573A14",
"t 	c #0F0702",
"u 	c #180E03",
"v 	c #482D0B",
"w 	c #4D2F0B",
"x 	c #4B2E0F",
"y 	c #74511F",
"z 	c #825C1F",
"A 	c #674015",
"B 	c #644018",
"C 	c #2E1B05",
"D 	c #1B1209",
"E 	c #221B11",
"F 	c #241B0C",
"G 	c #3A2A19",
"H 	c #6E4F2F",
"I 	c #775224",
"J 	c #865C25",
"K 	c #614018",
"L 	c #311A03",
"M 	c #1E0F02",
"N 	c #060200",
"O 	c #020100",
"P 	c #1E1103",
"Q 	c #724E1B",
"R 	c #8A5F23",
"S 	c #80571D",
"T 	c #7B521B",
"U 	c #885D22",
"V 	c #7B511F",
"W 	c #5B350C",
"X 	c #643B0C",
"Y 	c #58330A",
"Z 	c #4C2F13",
"` 	c #583A1D",
" .	c #62421D",
"..	c #755224",
"+.	c #785222",
"@.	c #724B1E",
"#.	c #795220",
"$.	c #66451B",
"%.	c #623E15",
"&.	c #764D1C",
"*.	c #543710",
"=.	c #221102",
"-.	c #321B05",
";.	c #392107",
">.	c #392005",
",.	c #311C02",
"'.	c #341E03",
").	c #3A2203",
"!.	c #452906",
"~.	c #392104",
"{.	c #392103",
"].	c #3B2203",
"^.	c #3C2303",
"/.	c #412909",
"(.	c #5A4321",
"_.	c #302310",
":.	c #1B1406",
"<.	c #6E5521",
"[.	c #774F1F",
"}.	c #533815",
"|.	c #150C03",
"1.	c #36240B",
"2.	c #5F4219",
"3.	c #875D28",
"4.	c #754C1D",
"5.	c #492404",
"6.	c #462103",
"7.	c #462204",
"8.	c #492505",
"9.	c #512E0B",
"0.	c #613E16",
"a.	c #4F2C0B",
"b.	c #4E2F0D",
"c.	c #271806",
"d.	c #090401",
"e.	c #1F1104",
"f.	c #543914",
"g.	c #6A4517",
"h.	c #54310A",
"i.	c #633B0E",
"j.	c #663E0F",
"k.	c #643E0C",
"l.	c #68410C",
"m.	c #6A4209",
"n.	c #643E08",
"o.	c #643D08",
"p.	c #704509",
"q.	c #744809",
"r.	c #744808",
"s.	c #744708",
"t.	c #7B5117",
"u.	c #A0773A",
"v.	c #B4894A",
"w.	c #674E29",
"x.	c #271F0A",
"y.	c #9C7D35",
"z.	c #4C340F",
"A.	c #0E0601",
"B.	c #2E1D08",
"C.	c #694316",
"D.	c #5C340A",
"E.	c #633B0D",
"F.	c #7C4F16",
"G.	c #744913",
"H.	c #502906",
"I.	c #4C2404",
"J.	c #472203",
"K.	c #401F03",
"L.	c #1C0C01",
"M.	c #432A0C",
"N.	c #6E4715",
"O.	c #815A1C",
"P.	c #8C6622",
"Q.	c #855E1E",
"R.	c #8B6723",
"S.	c #A78632",
"T.	c #A68631",
"U.	c #A78731",
"V.	c #A88832",
"W.	c #A78631",
"X.	c #A88731",
"Y.	c #927127",
"Z.	c #7A4F12",
"`.	c #996619",
" +	c #946016",
".+	c #74470C",
"++	c #7C4D0E",
"@+	c #855410",
"#+	c #82520F",
"$+	c #794A0C",
"%+	c #774A0E",
"&+	c #986D32",
"*+	c #B98D4D",
"=+	c #8D6B3B",
"-+	c #100903",
";+	c #967B35",
">+	c #876828",
",+	c #3A2407",
"'+	c #120701",
")+	c #040100",
"!+	c #100701",
"~+	c #3D2308",
"{+	c #522E08",
"]+	c #794D15",
"^+	c #A26E22",
"/+	c #A16D22",
"(+	c #8D5F1C",
"_+	c #825517",
":+	c #8B5B19",
"<+	c #704612",
"[+	c #6B4310",
"}+	c #4E2D07",
"|+	c #2D1703",
"1+	c #231403",
"2+	c #2F1E06",
"3+	c #6F521C",
"4+	c #A78131",
"5+	c #AE8F37",
"6+	c #B79439",
"7+	c #B49238",
"8+	c #AC893A",
"9+	c #A68D3A",
"0+	c #8C7730",
"a+	c #A28B38",
"b+	c #C0A543",
"c+	c #C0A544",
"d+	c #BFA543",
"e+	c #9F8738",
"f+	c #8A7630",
"g+	c #8A762F",
"h+	c #967F33",
"i+	c #B2983D",
"j+	c #A38636",
"k+	c #8B6626",
"l+	c #8B611E",
"m+	c #A16C1E",
"n+	c #8A5A19",
"o+	c #7E4D10",
"p+	c #935D15",
"q+	c #965F16",
"r+	c #925C15",
"s+	c #855312",
"t+	c #845212",
"u+	c #8B5B1D",
"v+	c #946E39",
"w+	c #4F3A1E",
"x+	c #030201",
"y+	c #4E4019",
"z+	c #A3843A",
"A+	c #9F7F37",
"B+	c #765A23",
"C+	c #6F5621",
"D+	c #664617",
"E+	c #623C10",
"F+	c #5F370A",
"G+	c #91601B",
"H+	c #8C5F1D",
"I+	c #482F0B",
"J+	c #241604",
"K+	c #4C310C",
"L+	c #7F561C",
"M+	c #8E5E1B",
"N+	c #AD7624",
"O+	c #91601C",
"P+	c #5C380C",
"Q+	c #74511A",
"R+	c #AE8735",
"S+	c #AE8937",
"T+	c #6E5721",
"U+	c #30250B",
"V+	c #322409",
"W+	c #4A350F",
"X+	c #3C2B0E",
"Y+	c #1F1A08",
"Z+	c #0B0801",
"`+	c #1A1505",
" @	c #2B240B",
".@	c #2B250B",
"+@	c #171204",
"@@	c #0A0701",
"#@	c #110C03",
"$@	c #231C07",
"%@	c #221A06",
"&@	c #1D1406",
"*@	c #110902",
"=@	c #352207",
"-@	c #8A5D1B",
";@	c #845314",
">@	c #8D5812",
",@	c #8F5913",
"'@	c #905A13",
")@	c #8E5A16",
"!@	c #5E401A",
"~@	c #080501",
"{@	c #030200",
"]@	c #2E240B",
"^@	c #695423",
"/@	c #8C7231",
"(@	c #866E2E",
"_@	c #7A581F",
":@	c #855F21",
"<@	c #654111",
"[@	c #6F430E",
"}@	c #2D1B04",
"|@	c #0C0602",
"1@	c #3C2709",
"2@	c #956625",
"3@	c #9D6A22",
"4@	c #67400F",
"5@	c #654717",
"6@	c #67511D",
"7@	c #3A2C0E",
"8@	c #050301",
"9@	c #392407",
"0@	c #724912",
"a@	c #865311",
"b@	c #885512",
"c@	c #895512",
"d@	c #8A5612",
"e@	c #8E5913",
"f@	c #754910",
"g@	c #1B0F03",
"h@	c #110C02",
"i@	c #0F0B02",
"j@	c #1F1403",
"k@	c #92732C",
"l@	c #9E782D",
"m@	c #5D3B12",
"n@	c #1F1305",
"o@	c #38270E",
"p@	c #936C2F",
"q@	c #6D4A19",
"r@	c #4B3613",
"s@	c #4E320B",
"t@	c #825213",
"u@	c #855110",
"v@	c #814E10",
"w@	c #835111",
"x@	c #814F10",
"y@	c #8A5613",
"z@	c #996E3B",
"A@	c #604F36",
"B@	c #090703",
"C@	c #544116",
"D@	c #B38C37",
"E@	c #6F4D19",
"F@	c #513513",
"G@	c #221606",
"H@	c #0F0802",
"I@	c #6F4F21",
"J@	c #785720",
"K@	c #6C5624",
"L@	c #0A0601",
"M@	c #251604",
"N@	c #7C551A",
"O@	c #966B23",
"P@	c #956621",
"Q@	c #905F1B",
"R@	c #966721",
"S@	c #996E27",
"T@	c #B48D43",
"U@	c #BC9D53",
"V@	c #574820",
"W@	c #221907",
"X@	c #B18C37",
"Y@	c #B98F38",
"Z@	c #6F4C19",
"`@	c #5E3E1A",
" #	c #341E07",
".#	c #0D0500",
"+#	c #080300",
"@#	c #100601",
"##	c #351F05",
"$#	c #6D4E1C",
"%#	c #A9893B",
"&#	c #58471D",
"*#	c #816227",
"=#	c #C99F42",
"-#	c #C39A3F",
";#	c #B18833",
">#	c #B88E35",
",#	c #CBA74C",
"'#	c #C9A94F",
")#	c #C8A84F",
"!#	c #625223",
"~#	c #433410",
"{#	c #AD8936",
"]#	c #B38C36",
"^#	c #6F4D18",
"/#	c #533109",
"(#	c #4E2C07",
"_#	c #4F2D07",
":#	c #5C3B10",
"<#	c #95712E",
"[#	c #C7A048",
"}#	c #967A36",
"|#	c #1D1705",
"1#	c #3B2E10",
"2#	c #57451A",
"3#	c #523F17",
"4#	c #2F2209",
"5#	c #2D2007",
"6#	c #53431C",
"7#	c #2A220B",
"8#	c #1D1706",
"9#	c #090601",
"0#	c #35270A",
"a#	c #7C6024",
"b#	c #9F7A2E",
"c#	c #9A7730",
"d#	c #997733",
"e#	c #A07C34",
"f#	c #B38E3D",
"g#	c #C9A249",
"h#	c #957936",
"i#	c #443515",
"j#	c #3B2C0D",
"k#	c #5F4C1E",
"l#	c #79622A",
"m#	c #937734",
"n#	c #6A5424",
"o#	c #5E4B1F",
"p#	c #1E1705",
"                  . + @ # $                                                                                       ",
"              + % & * = - ; > .                                                                                   ",
"            , ' ) ! ~ { ] ^ / ( _                                                                                 ",
"            : < [ } | 1 2 3 4 5 6 7                                                                               ",
"          . 8 9 0 a b c d e f g h i                                                                               ",
"      . $ j k l m n o     . p q r s t .                                                                           ",
"    u v w x y z A B C D E F G H I J K L M N   $ O O O                             . + $                           ",
"$ P Q R S T U V W X Y Z `  ...+.@.#.$.%.&.*.=.-.;.;.>.,.'.'.'.'.'.'.'.'.'.'.'.'.'.).!.~.{.].].].].].].].^./.(._.$ ",
":.<.[.}.|.1.2.3.4.5.6.7.8.9.0.a.b.c.d.e.f.g.h.i.j.j.k.l.m.m.m.m.m.m.m.m.m.m.m.m.m.m.n.o.p.q.r.r.r.r.r.s.t.u.v.w.7 ",
"x.y.z.A.    # B.C.D.E.F.G.H.I.J.K.L..   @ M.N.O.P.Q.R.S.T.U.V.V.V.V.V.V.V.U.T.T.W.X.Y.Z.`. +.+++@+@+#+$+%+&+*+=+-+",
"  ;+>+,+'+)+!+~+{+]+^+/+(+_+:+<+[+}+|+1+2+3+4+5+6+7+8+9+0+a+b+c+c+c+c+c+d+e+f+g+h+i+j+k+l+m+n+o+p+q+r+s+t+u+v+w+x+",
"  y+z+A+B+C+D+E+F+G+H+I+J+K+L+M+N+O+P+Q+R+S+T+U+V+W+X+Y+Z+`+ @.@.@.@.@.@ @+@@@@@#@$@%@&@*@=@-@;@>@,@'@,@,@)@!@~@  ",
"  {@]@^@/@(@_@:@<@[@}@.     |@1@2@3@4@5@6@7@8@                                            $ 9@0@a@b@c@d@c@e@f@g@  ",
"      {@h@i@j@k@l@m@n@        O o@p@q@r@8@                                                  O s@t@u@v@w@x@y@z@A@B@",
"              C@D@E@F@G@+       H@I@J@K@L@                                                    M@N@O@P@Q@R@S@T@U@V@",
"              W@X@Y@Z@`@ #.#+#@###$#%#&#O                                                     d.*#=#-#;#>#,#'#)#!#",
"              $ ~#{#]#^#/#(#_#:#<#[#}#|#                                                      O 1#2#3#4#5#6#7#8#9#",
"                O 0#a#b#c#d#e#f#g#h#i#$                                                                           ",
"                    L@j#k#l#m#n#o#p#O                                                                             ",
"                                                                                                                  "};
