/* XPM */
static char * player_xpm[] = {
"24 24 52 1",
" 	c #000000",
".	c #382C05",
"+	c #372B05",
"@	c #AD860F",
"#	c #3C2E05",
"$	c #DDAB13",
"%	c #3B2E05",
"&	c #3F3105",
"*	c #3E3005",
"=	c #B38B0F",
"-	c #433406",
";	c #413206",
">	c #463606",
",	c #443506",
"'	c #B99010",
")	c #4A3906",
"!	c #483806",
"~	c #020100",
"{	c #4D3C07",
"]	c #4B3A06",
"^	c #BF9410",
"/	c #513E07",
"(	c #4E3C07",
"_	c #030200",
":	c #534007",
"<	c #CEA012",
"[	c #CFA012",
"}	c #503E07",
"|	c #C49811",
"1	c #C69A11",
"2	c #654E09",
"3	c #0A0701",
"4	c #0B0901",
"5	c #C79A11",
"6	c #584408",
"7	c #BD9210",
"8	c #040300",
"9	c #060501",
"0	c #BE9310",
"a	c #544107",
"b	c #050400",
"c	c #B2890F",
"d	c #B38A0F",
"e	c #5B4608",
"f	c #A57F0E",
"g	c #3D2F05",
"h	c #A6810E",
"i	c #81640B",
"j	c #2E2404",
"k	c #312604",
"l	c #7F630B",
"m	c #030300",
"                        ",
"           .+           ",
"           @@           ",
"          #$$%          ",
"          @$$@          ",
"         &$$$$*         ",
"         =$$$$=         ",
"        -$$$$$$;        ",
"        =$$$$$$=        ",
"       >$$$$$$$$,       ",
"       '$$$$$$$$'       ",
"      )$$$$$$$$$$!      ",
"     ~'$$$$$$$$$$'      ",
"     {$$$$$$$$$$$$]     ",
"    ~^$$$$$$$$$$$$'~    ",
"    /$$$$$$$$$$$$$$(    ",
"   _^$$$$$$$$$$$$$$^~   ",
"   :$$$$$$$<[$$$$$$$}   ",
"  _|$$$$$123425$$$$$^_  ",
"  6$$$$768    960$$$$a  ",
" b|$$c)~        ~]d$$|_ ",
" e$fg              *h$6 ",
"8ij                  klm",
"                        "};
